<svg xmlns="http://www.w3.org/2000/svg" xmlns:xlink="http://www.w3.org/1999/xlink" width="28" height="28" viewBox="0 0 28 28">
  <defs>
    <clipPath id="clip-path">
      <rect id="長方形_13523" data-name="長方形 13523" width="28" height="28" transform="translate(32 11.997)" fill="#0e6c8b"/>
    </clipPath>
  </defs>
  <g id="_icon-28-checkIdeal" data-name="#icon-28-checkIdeal" transform="translate(0 0)">
    <g id="マスクグループ_6549" data-name="マスクグループ 6549" transform="translate(-32 -11.997)" clip-path="url(#clip-path)">
      <rect id="長方形_13525" data-name="長方形 13525" width="28" height="28" rx="3" transform="translate(32 11.997)" fill="#f2f7f8"/>
      <path id="check_box_FILL1_wght300_GRAD0_opsz24" d="M151.7-803.123l-3.826-3.826a1.193,1.193,0,0,0-.86-.35,1.164,1.164,0,0,0-.876.35,1.182,1.182,0,0,0-.358.868,1.182,1.182,0,0,0,.358.868l4.52,4.52a1.428,1.428,0,0,0,1.042.447,1.428,1.428,0,0,0,1.042-.447l9.163-9.163a1.193,1.193,0,0,0,.35-.86,1.165,1.165,0,0,0-.35-.876,1.182,1.182,0,0,0-.868-.358,1.182,1.182,0,0,0-.868.358ZM142.978-792a2.874,2.874,0,0,1-2.113-.865,2.874,2.874,0,0,1-.865-2.113v-22.045a2.874,2.874,0,0,1,.865-2.113,2.874,2.874,0,0,1,2.113-.865h22.045a2.874,2.874,0,0,1,2.113.865,2.874,2.874,0,0,1,.865,2.113v22.045a2.874,2.874,0,0,1-.865,2.113,2.874,2.874,0,0,1-2.113.865Z" transform="translate(-108.001 831.997)" fill="#0e6c8b"/>
    </g>
  </g>
</svg>
