<svg xmlns="http://www.w3.org/2000/svg" xmlns:xlink="http://www.w3.org/1999/xlink" width="16" height="16" viewBox="0 0 16 16">
  <defs>
    <clipPath id="clip-path">
      <rect id="長方形_13523" data-name="長方形 13523" width="16" height="16" transform="translate(32 11.988)" fill="#0e6c8b"/>
    </clipPath>
  </defs>
  <g id="グループ_19511" data-name="グループ 19511" transform="translate(0 0.012)">
    <g id="マスクグループ_6549" data-name="マスクグループ 6549" transform="translate(-32 -12)" clip-path="url(#clip-path)">
      <rect id="長方形_13526" data-name="長方形 13526" width="16" height="16" transform="translate(32 12)" fill="#0e6c8b" opacity="0"/>
      <path id="info_FILL0_wght400_GRAD0_opsz24" d="M88-868a.774.774,0,0,0,.57-.23.774.774,0,0,0,.23-.57V-872a.774.774,0,0,0-.23-.57.774.774,0,0,0-.57-.23.774.774,0,0,0-.57.23.774.774,0,0,0-.23.57v3.2a.774.774,0,0,0,.23.57A.774.774,0,0,0,88-868Zm0-6.4a.774.774,0,0,0,.57-.23.774.774,0,0,0,.23-.57.774.774,0,0,0-.23-.57A.774.774,0,0,0,88-876a.774.774,0,0,0-.57.23.774.774,0,0,0-.23.57.774.774,0,0,0,.23.57A.774.774,0,0,0,88-874.4ZM88-864a7.79,7.79,0,0,1-3.12-.63,8.079,8.079,0,0,1-2.54-1.71,8.078,8.078,0,0,1-1.71-2.54A7.79,7.79,0,0,1,80-872a7.79,7.79,0,0,1,.63-3.12,8.079,8.079,0,0,1,1.71-2.54,8.079,8.079,0,0,1,2.54-1.71A7.789,7.789,0,0,1,88-880a7.789,7.789,0,0,1,3.12.63,8.079,8.079,0,0,1,2.54,1.71,8.079,8.079,0,0,1,1.71,2.54A7.79,7.79,0,0,1,96-872a7.79,7.79,0,0,1-.63,3.12,8.079,8.079,0,0,1-1.71,2.54,8.079,8.079,0,0,1-2.54,1.71A7.79,7.79,0,0,1,88-864Zm0-1.6a6.177,6.177,0,0,0,4.54-1.86A6.177,6.177,0,0,0,94.4-872a6.177,6.177,0,0,0-1.86-4.54A6.177,6.177,0,0,0,88-878.4a6.177,6.177,0,0,0-4.54,1.86A6.177,6.177,0,0,0,81.6-872a6.177,6.177,0,0,0,1.86,4.54A6.177,6.177,0,0,0,88-865.6ZM88-872Z" transform="translate(-48 891.988)" fill="#0e6c8b"/>
    </g>
  </g>
</svg>
