<svg xmlns="http://www.w3.org/2000/svg" xmlns:xlink="http://www.w3.org/1999/xlink" width="16" height="16" viewBox="0 0 16 16">
  <defs>
    <clipPath id="clip-path">
      <rect id="長方形_13523" data-name="長方形 13523" width="16" height="16" transform="translate(32 11.998)" fill="#999"/>
    </clipPath>
  </defs>
  <g id="_icon-16-checkOff" data-name="#icon-16-checkOff" transform="translate(0 0.002)">
    <g id="マスクグループ_6549" data-name="マスクグループ 6549" transform="translate(-32 -12)" clip-path="url(#clip-path)">
      <rect id="長方形_13526" data-name="長方形 13526" width="16" height="16" transform="translate(32 12)" fill="#999" opacity="0"/>
      <path id="priority_FILL1_wght300_GRAD0_opsz24" d="M145.177-804a4.992,4.992,0,0,1-3.667-1.51,4.992,4.992,0,0,1-1.51-3.667v-5.647a4.992,4.992,0,0,1,1.51-3.667,4.992,4.992,0,0,1,3.667-1.51h5.647a4.992,4.992,0,0,1,3.667,1.51,4.992,4.992,0,0,1,1.51,3.667v5.647a4.992,4.992,0,0,1-1.51,3.667,4.992,4.992,0,0,1-3.667,1.51Zm1.882-4.561,5.321-5.321-.992-.992-4.329,4.329-2.071-2.071-.992.992Z" transform="translate(-108.001 831.997)" fill="#999"/>
    </g>
  </g>
</svg>
